<mxfile host="app.diagrams.net" modified="2021-10-04T08:05:50.295Z" agent="5.0 (Macintosh; Intel Mac OS X 10_15_7) AppleWebKit/537.36 (KHTML, like Gecko) Chrome/94.0.4606.71 Safari/537.36" etag="Gx8bOf1mW3pEBAAOgdXk" version="14.4.2" type="github">
  <diagram id="Hu3Y81P_gR6Ssnfn_t-j" name="Page-1">
    <mxGraphModel dx="1186" dy="589" grid="1" gridSize="10" guides="1" tooltips="1" connect="1" arrows="1" fold="1" page="1" pageScale="1" pageWidth="827" pageHeight="1169" math="0" shadow="0">
      <root>
        <mxCell id="0" />
        <mxCell id="1" parent="0" />
        <mxCell id="_32fEMNSsc4oTzrh_R-V-3" value="" style="edgeStyle=orthogonalEdgeStyle;rounded=0;orthogonalLoop=1;jettySize=auto;html=1;" edge="1" parent="1" source="_32fEMNSsc4oTzrh_R-V-1" target="_32fEMNSsc4oTzrh_R-V-2">
          <mxGeometry relative="1" as="geometry" />
        </mxCell>
        <mxCell id="_32fEMNSsc4oTzrh_R-V-1" value="问题：&lt;br&gt;我的食堂饭卡余额？&lt;br&gt;我的成绩单？&lt;br&gt;暑期留宿报名审批？" style="rounded=1;whiteSpace=wrap;html=1;" vertex="1" parent="1">
          <mxGeometry x="80" y="200" width="120" height="80" as="geometry" />
        </mxCell>
        <mxCell id="_32fEMNSsc4oTzrh_R-V-2" value="机器人" style="whiteSpace=wrap;html=1;rounded=1;" vertex="1" parent="1">
          <mxGeometry x="280" y="200" width="120" height="80" as="geometry" />
        </mxCell>
        <mxCell id="_32fEMNSsc4oTzrh_R-V-4" value="单点登录" style="whiteSpace=wrap;html=1;rounded=1;" vertex="1" parent="1">
          <mxGeometry x="280" y="40" width="120" height="80" as="geometry" />
        </mxCell>
        <mxCell id="_32fEMNSsc4oTzrh_R-V-6" value="" style="endArrow=classic;startArrow=classic;html=1;entryX=0.5;entryY=1;entryDx=0;entryDy=0;" edge="1" parent="1" source="_32fEMNSsc4oTzrh_R-V-2" target="_32fEMNSsc4oTzrh_R-V-4">
          <mxGeometry width="50" height="50" relative="1" as="geometry">
            <mxPoint x="550" y="290" as="sourcePoint" />
            <mxPoint x="600" y="240" as="targetPoint" />
          </mxGeometry>
        </mxCell>
        <mxCell id="_32fEMNSsc4oTzrh_R-V-12" value="获取认证信息" style="edgeLabel;html=1;align=center;verticalAlign=middle;resizable=0;points=[];" vertex="1" connectable="0" parent="_32fEMNSsc4oTzrh_R-V-6">
          <mxGeometry x="0.05" y="-1" relative="1" as="geometry">
            <mxPoint as="offset" />
          </mxGeometry>
        </mxCell>
        <mxCell id="_32fEMNSsc4oTzrh_R-V-7" value="成绩系统" style="whiteSpace=wrap;html=1;rounded=1;" vertex="1" parent="1">
          <mxGeometry x="560" y="80" width="120" height="80" as="geometry" />
        </mxCell>
        <mxCell id="_32fEMNSsc4oTzrh_R-V-9" value="食堂系统" style="whiteSpace=wrap;html=1;rounded=1;" vertex="1" parent="1">
          <mxGeometry x="560" y="200" width="120" height="80" as="geometry" />
        </mxCell>
        <mxCell id="_32fEMNSsc4oTzrh_R-V-10" value="学生系统" style="whiteSpace=wrap;html=1;rounded=1;" vertex="1" parent="1">
          <mxGeometry x="560" y="320" width="120" height="80" as="geometry" />
        </mxCell>
        <mxCell id="_32fEMNSsc4oTzrh_R-V-13" value="认证信息" style="endArrow=classic;html=1;exitX=1;exitY=0.5;exitDx=0;exitDy=0;entryX=0;entryY=0.5;entryDx=0;entryDy=0;" edge="1" parent="1" source="_32fEMNSsc4oTzrh_R-V-2" target="_32fEMNSsc4oTzrh_R-V-9">
          <mxGeometry relative="1" as="geometry">
            <mxPoint x="440" y="220" as="sourcePoint" />
            <mxPoint x="540" y="220" as="targetPoint" />
          </mxGeometry>
        </mxCell>
        <mxCell id="_32fEMNSsc4oTzrh_R-V-15" value="认证信息" style="endArrow=classic;html=1;exitX=1;exitY=0.5;exitDx=0;exitDy=0;entryX=0;entryY=0.5;entryDx=0;entryDy=0;" edge="1" parent="1" source="_32fEMNSsc4oTzrh_R-V-2">
          <mxGeometry relative="1" as="geometry">
            <mxPoint x="400" y="359.5" as="sourcePoint" />
            <mxPoint x="560" y="359.5" as="targetPoint" />
          </mxGeometry>
        </mxCell>
        <mxCell id="_32fEMNSsc4oTzrh_R-V-16" value="认证信息" style="endArrow=classic;html=1;exitX=1;exitY=0.5;exitDx=0;exitDy=0;entryX=0;entryY=0.5;entryDx=0;entryDy=0;" edge="1" parent="1" source="_32fEMNSsc4oTzrh_R-V-2" target="_32fEMNSsc4oTzrh_R-V-7">
          <mxGeometry relative="1" as="geometry">
            <mxPoint x="420" y="260" as="sourcePoint" />
            <mxPoint x="580" y="260" as="targetPoint" />
          </mxGeometry>
        </mxCell>
        <mxCell id="_32fEMNSsc4oTzrh_R-V-47" style="edgeStyle=orthogonalEdgeStyle;rounded=0;orthogonalLoop=1;jettySize=auto;html=1;" edge="1" parent="1" source="_32fEMNSsc4oTzrh_R-V-30" target="_32fEMNSsc4oTzrh_R-V-36">
          <mxGeometry relative="1" as="geometry" />
        </mxCell>
        <mxCell id="_32fEMNSsc4oTzrh_R-V-30" value="问题：&lt;br&gt;我的食堂饭卡余额？" style="rounded=1;whiteSpace=wrap;html=1;" vertex="1" parent="1">
          <mxGeometry x="720" y="560" width="120" height="80" as="geometry" />
        </mxCell>
        <mxCell id="_32fEMNSsc4oTzrh_R-V-31" value="机器人" style="whiteSpace=wrap;html=1;rounded=1;" vertex="1" parent="1">
          <mxGeometry x="210" y="560" width="120" height="80" as="geometry" />
        </mxCell>
        <mxCell id="_32fEMNSsc4oTzrh_R-V-43" style="edgeStyle=orthogonalEdgeStyle;rounded=0;orthogonalLoop=1;jettySize=auto;html=1;entryX=1;entryY=0.5;entryDx=0;entryDy=0;" edge="1" parent="1" source="_32fEMNSsc4oTzrh_R-V-35" target="_32fEMNSsc4oTzrh_R-V-31">
          <mxGeometry relative="1" as="geometry" />
        </mxCell>
        <mxCell id="_32fEMNSsc4oTzrh_R-V-35" value="成绩系统" style="whiteSpace=wrap;html=1;rounded=1;" vertex="1" parent="1">
          <mxGeometry x="480" y="440" width="120" height="80" as="geometry" />
        </mxCell>
        <mxCell id="_32fEMNSsc4oTzrh_R-V-44" style="edgeStyle=orthogonalEdgeStyle;rounded=0;orthogonalLoop=1;jettySize=auto;html=1;entryX=1;entryY=0.5;entryDx=0;entryDy=0;" edge="1" parent="1" source="_32fEMNSsc4oTzrh_R-V-36" target="_32fEMNSsc4oTzrh_R-V-31">
          <mxGeometry relative="1" as="geometry" />
        </mxCell>
        <mxCell id="_32fEMNSsc4oTzrh_R-V-36" value="食堂系统" style="whiteSpace=wrap;html=1;rounded=1;" vertex="1" parent="1">
          <mxGeometry x="480" y="560" width="120" height="80" as="geometry" />
        </mxCell>
        <mxCell id="_32fEMNSsc4oTzrh_R-V-45" style="edgeStyle=orthogonalEdgeStyle;rounded=0;orthogonalLoop=1;jettySize=auto;html=1;entryX=1;entryY=0.5;entryDx=0;entryDy=0;" edge="1" parent="1" source="_32fEMNSsc4oTzrh_R-V-37" target="_32fEMNSsc4oTzrh_R-V-31">
          <mxGeometry relative="1" as="geometry" />
        </mxCell>
        <mxCell id="_32fEMNSsc4oTzrh_R-V-37" value="学生系统" style="whiteSpace=wrap;html=1;rounded=1;" vertex="1" parent="1">
          <mxGeometry x="480" y="680" width="120" height="80" as="geometry" />
        </mxCell>
        <mxCell id="_32fEMNSsc4oTzrh_R-V-46" style="edgeStyle=orthogonalEdgeStyle;rounded=0;orthogonalLoop=1;jettySize=auto;html=1;" edge="1" parent="1" source="_32fEMNSsc4oTzrh_R-V-41" target="_32fEMNSsc4oTzrh_R-V-35">
          <mxGeometry relative="1" as="geometry" />
        </mxCell>
        <mxCell id="_32fEMNSsc4oTzrh_R-V-41" value="问题：&lt;br&gt;我的成绩单？" style="rounded=1;whiteSpace=wrap;html=1;" vertex="1" parent="1">
          <mxGeometry x="720" y="440" width="120" height="80" as="geometry" />
        </mxCell>
        <mxCell id="_32fEMNSsc4oTzrh_R-V-48" style="edgeStyle=orthogonalEdgeStyle;rounded=0;orthogonalLoop=1;jettySize=auto;html=1;entryX=1;entryY=0.5;entryDx=0;entryDy=0;" edge="1" parent="1" source="_32fEMNSsc4oTzrh_R-V-42" target="_32fEMNSsc4oTzrh_R-V-37">
          <mxGeometry relative="1" as="geometry" />
        </mxCell>
        <mxCell id="_32fEMNSsc4oTzrh_R-V-42" value="问题：&lt;br&gt;暑期留宿报名审批？" style="rounded=1;whiteSpace=wrap;html=1;" vertex="1" parent="1">
          <mxGeometry x="720" y="680" width="120" height="80" as="geometry" />
        </mxCell>
      </root>
    </mxGraphModel>
  </diagram>
</mxfile>
